<?xml version="1.0" encoding="UTF-8"?>
<svg version="1.1" xmlns="http://www.w3.org/2000/svg" width="144" height="144">
<path d="M0 0 C4.75829792 0.30583514 6.83011935 2.35969283 10.08203125 5.69140625 C10.54107346 6.15610825 11.00011566 6.62081024 11.47306824 7.09959412 C12.92924735 8.57806683 14.37085904 10.06986157 15.8125 11.5625 C16.80050098 12.57057507 17.78942404 13.5777473 18.77929688 14.58398438 C21.19696393 17.04562454 23.60176584 19.51940673 26 22 C29.6760626 20.47184344 31.87700182 18.27551649 34.58984375 15.39453125 C35.45673828 14.49412109 36.32363281 13.59371094 37.21679688 12.66601562 C39.03460718 10.75946799 40.84449891 8.84533966 42.64648438 6.92382812 C43.51466797 6.02728516 44.38285156 5.13074219 45.27734375 4.20703125 C46.06359131 3.3766333 46.84983887 2.54623535 47.65991211 1.69067383 C50 0 50 0 52.79516602 0.23706055 C53.52276123 0.48883057 54.25035645 0.74060059 55 1 C55.34448242 3.11181641 55.34448242 3.11181641 55 6 C53.22836159 8.28057908 51.52721077 10.19775705 49.48828125 12.2109375 C48.92304245 12.7833316 48.35780365 13.35572571 47.7754364 13.94546509 C46.57862111 15.15005478 45.37538133 16.3482907 44.16625977 17.54052734 C42.3169751 19.37057146 40.49890576 21.22806312 38.68164062 23.08984375 C37.51479247 24.25698222 36.34622796 25.42240782 35.17578125 26.5859375 C34.63286942 27.14413177 34.08995758 27.70232605 33.53059387 28.2774353 C31.24476061 30.49434019 29.74606022 31.94290244 26.50219727 32.19116211 C22.99672447 30.52239425 20.48831129 28.07923535 17.7890625 25.35546875 C16.93047134 24.50617546 16.93047134 24.50617546 16.05453491 23.63972473 C14.85117911 22.44345645 13.65291471 21.24204747 12.45947266 20.03588867 C10.62592438 18.1884314 8.76958906 16.36628175 6.91015625 14.54492188 C5.7433394 13.37905581 4.57792444 12.21178466 3.4140625 11.04296875 C2.85586823 10.49803268 2.29767395 9.95309662 1.7225647 9.39164734 C0.19384766 7.82495117 0.19384766 7.82495117 -2 5 C-1.89805704 2.61890362 -1.67009011 1.67009011 0 0 Z " fill="#232323" transform="translate(46,59)"/>
</svg>
